<?xml version="1.0" encoding="UTF-8" standalone="no"?>
<svg
   xmlns:dc="http://purl.org/dc/elements/1.1/"
   xmlns:cc="http://creativecommons.org/ns#"
   xmlns:rdf="http://www.w3.org/1999/02/22-rdf-syntax-ns#"
   xmlns:svg="http://www.w3.org/2000/svg"
   xmlns="http://www.w3.org/2000/svg"
   xmlns:sodipodi="http://sodipodi.sourceforge.net/DTD/sodipodi-0.dtd"
   xmlns:inkscape="http://www.inkscape.org/namespaces/inkscape"
   width="512mm"
   height="512mm"
   viewBox="0 0 512 512"
   version="1.1"
   id="svg8"
   inkscape:version="1.0.2 (e86c870879, 2021-01-15, custom)"
   sodipodi:docname="icon.svg"
   inkscape:export-filename="C:\Users\dawid\Pictures\kartkazareny icon\icon_512.png"
   inkscape:export-xdpi="96"
   inkscape:export-ydpi="96">
  <defs
     id="defs2" />
  <sodipodi:namedview
     id="base"
     pagecolor="#ffffff"
     bordercolor="#666666"
     borderopacity="1.0"
     inkscape:pageopacity="0.0"
     inkscape:pageshadow="2"
     inkscape:zoom="0.49497475"
     inkscape:cx="2048.9999"
     inkscape:cy="777.45319"
     inkscape:document-units="mm"
     inkscape:current-layer="layer1"
     inkscape:document-rotation="0"
     showgrid="false"
     fit-margin-top="0"
     fit-margin-left="0"
     fit-margin-right="0"
     fit-margin-bottom="0"
     inkscape:window-width="3360"
     inkscape:window-height="1780"
     inkscape:window-x="3348"
     inkscape:window-y="-12"
     inkscape:window-maximized="1" />
  <metadata
     id="metadata5">
    <rdf:RDF>
      <cc:Work
         rdf:about="">
        <dc:format>image/svg+xml</dc:format>
        <dc:type
           rdf:resource="http://purl.org/dc/dcmitype/StillImage" />
        <dc:title></dc:title>
      </cc:Work>
    </rdf:RDF>
  </metadata>
  <g
     inkscape:label="Layer 1"
     inkscape:groupmode="layer"
     id="layer1"
     transform="translate(-78.241074,-134.7485)">
    <rect
       style="fill:#e5edfb;fill-opacity:1;stroke:none;stroke-width:0.165"
       id="rect848"
       width="512"
       height="512"
       x="78.241074"
       y="134.7485"
       ry="0" />
    <g
       style="opacity:0.9;fill:#000000"
       id="g876"
       transform="matrix(18.058455,0,0,18.058455,116.48251,172.98993)">
      <g
         id="g852">
        <rect
           fill="none"
           height="24"
           width="24"
           id="rect850"
           x="0"
           y="0" />
      </g>
      <g
         id="g860">
        <g
           id="g858">
          <path
             d="M 5,5 H 7 V 8 H 17 V 5 h 2 v 5 h 2 V 5 C 21,3.9 20.1,3 19,3 H 14.82 C 14.4,1.84 13.3,1 12,1 10.7,1 9.6,1.84 9.18,3 H 5 C 3.9,3 3,3.9 3,5 v 14 c 0,1.1 0.9,2 2,2 h 6 V 19 H 5 Z m 7,-2 c 0.55,0 1,0.45 1,1 0,0.55 -0.45,1 -1,1 -0.55,0 -1,-0.45 -1,-1 0,-0.55 0.45,-1 1,-1 z"
             id="path854" />
          <polygon
             points="15.51,17 12.5,14 11,15.5 15.51,20 22.5,13 21,11.5 "
             id="polygon856" />
        </g>
      </g>
    </g>
  </g>
</svg>
